# xmcd CD database file
#
# Track frame offsets:
#	150
#	23010
#	44688
#	68688
#	94547
#	122819
#	145101
#	168712
#	189864
#	216031
#
# Disc length: 3041 seconds
#
# Revision: 0
# Processed by: cddbd v1.4PL0 Copyright (c) Steve Scherf et al.
# Submitted via: CDex 1.50Beta7
#
DISCID=860bdf0a
DTITLE=Angel Bonne - Bonne and Bonne Co.
DYEAR=1900
DGENRE=Salsa
TTITLE0=Bonne and Bonne Co
TTITLE1=Yo sé que eres tu
TTITLE2=La tierra donde naci
TTITLE3=Imagino
TTITLE4=Pura vestimenta
TTITLE5=Havana City
TTITLE6=La vida es linda
TTITLE7=Hagamos eterno este instante
TTITLE8=Pepe Cabecita
TTITLE9=Bonus
EXTD=
EXTT0=
EXTT1=
EXTT2=
EXTT3=
EXTT4=
EXTT5=
EXTT6=
EXTT7=
EXTT8=
EXTT9=
PLAYORDER=
